<svg width="40" height="40" viewBox="0 0 40 40" fill="none" xmlns="http://www.w3.org/2000/svg">
<path d="M23.136 24.1458L22.6887 23.9226L22.749 23.8017L23.136 24.1458ZM23.136 24.1458L23.4683 23.7722L23.3673 23.6824L23.136 24.1458ZM11.1168 29.3067L10.7254 30.0417H11.5581H30.5833V30.5833H11.0417C10.7654 30.5833 10.5004 30.4736 10.3051 30.2782C10.1097 30.0829 10 29.8179 10 29.5417V10H10.5417V27.2292L11.4836 27.463L15.5586 19.7599C15.6346 19.6248 15.7398 19.5084 15.8665 19.4192C15.9942 19.3293 16.1405 19.2692 16.2946 19.2435C16.4507 19.2185 16.6104 19.2294 16.7617 19.2753C16.9133 19.3213 17.0524 19.4014 17.1685 19.5093L17.1684 19.5094L17.1767 19.5168L22.8038 24.5195L23.2918 24.9534L23.5834 24.3691L27.5928 16.3357L28.0982 16.5856L24.069 24.6075L24.0688 24.6079C23.9968 24.7516 23.8926 24.8766 23.7643 24.9733C23.636 25.0699 23.4871 25.1356 23.3292 25.1652L23.3283 25.1654C23.1719 25.195 23.0107 25.1883 22.8572 25.1459C22.7037 25.1034 22.5621 25.0264 22.443 24.9207C22.443 24.9207 22.443 24.9206 22.4429 24.9206L16.816 19.918L16.3411 19.4958L16.0424 20.0567L11.1168 29.3067ZM28.7708 16.3604L28.3226 16.1388L28.5464 16.8072L28.7708 16.3604Z" fill="black" stroke="white"/>
</svg>
