<svg width="40" height="40" viewBox="0 0 40 40" fill="none" xmlns="http://www.w3.org/2000/svg">
<path d="M30.5 20C30.5 19.3038 30.2234 18.6361 29.7312 18.1438C29.2389 17.6516 28.5712 17.375 27.875 17.375H23.5C23.5 18.3033 23.1313 19.1935 22.4749 19.8499C21.8185 20.5063 20.9283 20.875 20 20.875C19.0717 20.875 18.1815 20.5063 17.5251 19.8499C16.8687 19.1935 16.5 18.3033 16.5 17.375H12.125C11.4288 17.375 10.7611 17.6516 10.2688 18.1438C9.77656 18.6361 9.5 19.3038 9.5 20M30.5 20V27C30.5 27.6962 30.2234 28.3639 29.7312 28.8562C29.2389 29.3484 28.5712 29.625 27.875 29.625H12.125C11.4288 29.625 10.7611 29.3484 10.2688 28.8562C9.77656 28.3639 9.5 27.6962 9.5 27V20M30.5 20V16.5M9.5 20V16.5M30.5 16.5C30.5 15.8038 30.2234 15.1361 29.7312 14.6438C29.2389 14.1516 28.5712 13.875 27.875 13.875H12.125C11.4288 13.875 10.7611 14.1516 10.2688 14.6438C9.77656 15.1361 9.5 15.8038 9.5 16.5M30.5 16.5V13C30.5 12.3038 30.2234 11.6361 29.7312 11.1438C29.2389 10.6516 28.5712 10.375 27.875 10.375H12.125C11.4288 10.375 10.7611 10.6516 10.2688 11.1438C9.77656 11.6361 9.5 12.3038 9.5 13V16.5" stroke="white" stroke-width="1.5" stroke-linecap="round" stroke-linejoin="round"/>
</svg>
