<svg width="28" height="29" viewBox="0 0 28 29" fill="none" xmlns="http://www.w3.org/2000/svg">
<path d="M22.5376 15.8173H18.0168C17.4175 15.8167 16.8425 16.0537 16.4178 16.4765C15.993 16.8993 15.7533 17.4732 15.7511 18.0725V22.5933C15.7508 22.8909 15.8092 23.1857 15.923 23.4607C16.0367 23.7357 16.2036 23.9856 16.4141 24.1961C16.6245 24.4065 16.8744 24.5734 17.1494 24.6871C17.4244 24.8009 17.7192 24.8593 18.0168 24.859H22.5376C23.1367 24.8565 23.7104 24.6166 24.1329 24.1919C24.5554 23.7672 24.7923 23.1924 24.7916 22.5933V18.0725C24.792 17.7764 24.7339 17.4831 24.6207 17.2095C24.5075 16.9359 24.3415 16.6873 24.1322 16.478C23.9228 16.2686 23.6742 16.1026 23.4006 15.9894C23.127 15.8763 22.8337 15.8182 22.5376 15.8185M9.98315 15.8173H5.46231C4.86334 15.8207 4.29005 16.061 3.86771 16.4858C3.44537 16.9105 3.2083 17.4852 3.20831 18.0841V22.605C3.20801 22.9011 3.2661 23.1943 3.37926 23.4679C3.49243 23.7415 3.65845 23.9901 3.86781 24.1995C4.07718 24.4088 4.32578 24.5749 4.59938 24.688C4.87299 24.8012 5.16623 24.8593 5.46231 24.859H9.98315C10.5822 24.8596 11.1571 24.6227 11.5818 24.2002C12.0065 23.7777 12.2463 23.204 12.2488 22.605V18.0841C12.2491 17.7865 12.1907 17.4918 12.077 17.2167C11.9632 16.9417 11.7963 16.6918 11.5859 16.4814C11.3755 16.2709 11.1256 16.1041 10.8505 15.9903C10.5755 15.8766 10.2808 15.8182 9.98315 15.8185M9.98315 3.27564H5.46231C5.16623 3.27533 4.87299 3.33342 4.59938 3.44659C4.32578 3.55975 4.07718 3.72577 3.86781 3.93513C3.65845 4.1445 3.49243 4.3931 3.37926 4.6667C3.2661 4.94031 3.20801 5.23355 3.20831 5.52964V10.0505C3.20769 10.6495 3.44459 11.2244 3.8671 11.6491C4.28961 12.0738 4.86326 12.3137 5.46231 12.3161H9.98315C10.2808 12.3164 10.5755 12.258 10.8505 12.1443C11.1256 12.0305 11.3755 11.8637 11.5859 11.6532C11.7963 11.4428 11.9632 11.1929 12.077 10.9179C12.1907 10.6428 12.2491 10.3481 12.2488 10.0505V5.52964C12.2463 4.93058 12.0065 4.35693 11.5818 3.93442C11.1571 3.51192 10.5822 3.27501 9.98315 3.27564ZM22.5376 3.27564H18.0168C17.4177 3.27501 16.8429 3.51192 16.4182 3.93442C15.9935 4.35693 15.7536 4.93058 15.7511 5.52964V10.0505C15.7515 10.6513 15.9903 11.2274 16.4151 11.6522C16.8399 12.077 17.416 12.3158 18.0168 12.3161H22.5376C23.1367 12.3137 23.7104 12.0738 24.1329 11.6491C24.5554 11.2244 24.7923 10.6495 24.7916 10.0505V5.52964C24.792 5.23355 24.7339 4.94031 24.6207 4.6667C24.5075 4.3931 24.3415 4.1445 24.1322 3.93513C23.9228 3.72577 23.6742 3.55975 23.4006 3.44659C23.127 3.33342 22.8337 3.27533 22.5376 3.27564Z" stroke="white" stroke-width="1.5" stroke-linecap="round" stroke-linejoin="round"/>
</svg>
