<svg width="40" height="40" viewBox="0 0 40 40" fill="none" xmlns="http://www.w3.org/2000/svg">
<path fill-rule="evenodd" clip-rule="evenodd" d="M9.92422 11.5417C9.52884 11.5417 9.20831 11.8622 9.20831 12.2576C9.20831 12.653 9.52884 12.9735 9.92422 12.9735C10.3196 12.9735 10.6401 12.653 10.6401 12.2576C10.6401 11.8622 10.3196 11.5417 9.92422 11.5417ZM7.45831 12.2576C7.45831 10.8957 8.56234 9.79167 9.92422 9.79167C11.2861 9.79167 12.3901 10.8957 12.3901 12.2576C12.3901 13.6195 11.2861 14.7235 9.92422 14.7235C8.56234 14.7235 7.45831 13.6195 7.45831 12.2576Z" fill="white"/>
<path fill-rule="evenodd" clip-rule="evenodd" d="M13.8219 10.6667C13.8219 10.1834 14.2137 9.79167 14.6969 9.79167H32.1969C32.6802 9.79167 33.0719 10.1834 33.0719 10.6667C33.0719 11.1499 32.6802 11.5417 32.1969 11.5417H14.6969C14.2137 11.5417 13.8219 11.1499 13.8219 10.6667ZM13.8219 13.8485C13.8219 13.3652 14.2137 12.9735 14.6969 12.9735H24.2424C24.7257 12.9735 25.1174 13.3652 25.1174 13.8485C25.1174 14.3317 24.7257 14.7235 24.2424 14.7235H14.6969C14.2137 14.7235 13.8219 14.3317 13.8219 13.8485Z" fill="white"/>
<path fill-rule="evenodd" clip-rule="evenodd" d="M9.92422 18.7008C9.52884 18.7008 9.20831 19.0213 9.20831 19.4167C9.20831 19.8121 9.52884 20.1326 9.92422 20.1326C10.3196 20.1326 10.6401 19.8121 10.6401 19.4167C10.6401 19.0213 10.3196 18.7008 9.92422 18.7008ZM7.45831 19.4167C7.45831 18.0548 8.56234 16.9508 9.92422 16.9508C11.2861 16.9508 12.3901 18.0548 12.3901 19.4167C12.3901 20.7786 11.2861 21.8826 9.92422 21.8826C8.56234 21.8826 7.45831 20.7786 7.45831 19.4167Z" fill="white"/>
<path fill-rule="evenodd" clip-rule="evenodd" d="M13.8219 17.8258C13.8219 17.3425 14.2137 16.9508 14.6969 16.9508H27.4242C27.9075 16.9508 28.2992 17.3425 28.2992 17.8258C28.2992 18.309 27.9075 18.7008 27.4242 18.7008H14.6969C14.2137 18.7008 13.8219 18.309 13.8219 17.8258ZM13.8219 21.0076C13.8219 20.5243 14.2137 20.1326 14.6969 20.1326H25.8333C26.3166 20.1326 26.7083 20.5243 26.7083 21.0076C26.7083 21.4908 26.3166 21.8826 25.8333 21.8826H14.6969C14.2137 21.8826 13.8219 21.4908 13.8219 21.0076Z" fill="white"/>
<path fill-rule="evenodd" clip-rule="evenodd" d="M9.92422 25.8599C9.52884 25.8599 9.20831 26.1804 9.20831 26.5758C9.20831 26.9711 9.52884 27.2917 9.92422 27.2917C10.3196 27.2917 10.6401 26.9711 10.6401 26.5758C10.6401 26.1804 10.3196 25.8599 9.92422 25.8599ZM7.45831 26.5758C7.45831 25.2139 8.56234 24.1099 9.92422 24.1099C11.2861 24.1099 12.3901 25.2139 12.3901 26.5758C12.3901 27.9376 11.2861 29.0417 9.92422 29.0417C8.56234 29.0417 7.45831 27.9376 7.45831 26.5758Z" fill="white"/>
<path fill-rule="evenodd" clip-rule="evenodd" d="M13.8219 24.9849C13.8219 24.5016 14.2137 24.1099 14.6969 24.1099H29.8106C30.2938 24.1099 30.6856 24.5016 30.6856 24.9849C30.6856 25.4681 30.2938 25.8599 29.8106 25.8599H14.6969C14.2137 25.8599 13.8219 25.4681 13.8219 24.9849ZM13.8219 28.1667C13.8219 27.6834 14.2137 27.2917 14.6969 27.2917H21.0606C21.5438 27.2917 21.9356 27.6834 21.9356 28.1667C21.9356 28.6499 21.5438 29.0417 21.0606 29.0417H14.6969C14.2137 29.0417 13.8219 28.6499 13.8219 28.1667Z" fill="white"/>
</svg>
