<svg width="28" height="29" viewBox="0 0 28 29" fill="none" xmlns="http://www.w3.org/2000/svg">
<path d="M7.87574 7.71981C8.20201 7.83466 8.54926 7.87755 8.89367 7.84555C9.23808 7.81355 9.57149 7.70741 9.87101 7.53441C10.1705 7.36142 10.4291 7.12567 10.6289 6.84334C10.8287 6.56101 10.9651 6.23878 11.0287 5.89878L11.4123 3.83679C12.9897 3.47745 14.6278 3.47745 16.2052 3.83679L16.5913 5.89878C16.6548 6.23878 16.7912 6.56101 16.991 6.84334C17.1909 7.12567 17.4494 7.36142 17.7489 7.53441C18.0484 7.70741 18.3819 7.81355 18.7263 7.84555C19.0707 7.87755 19.4179 7.83466 19.7442 7.71981L21.7211 7.02449C22.8215 8.20986 23.6413 9.62747 24.1199 11.1725L22.5255 12.5391C22.2629 12.7642 22.0521 13.0435 21.9076 13.3577C21.763 13.6719 21.6882 14.0137 21.6882 14.3595C21.6882 14.7054 21.763 15.0472 21.9076 15.3614C22.0521 15.6756 22.2629 15.9549 22.5255 16.18L24.1199 17.5454C23.6413 19.0904 22.8215 20.508 21.7211 21.6934L19.743 20.9981C19.4167 20.8832 19.0695 20.8403 18.7251 20.8723C18.3807 20.9043 18.0472 21.0105 17.7477 21.1835C17.4482 21.3565 17.1897 21.5922 16.9898 21.8746C16.79 22.1569 16.6536 22.4791 16.5901 22.8191L16.2076 24.8811C14.6302 25.2405 12.9921 25.2405 11.4147 24.8811L11.0287 22.8191C10.9651 22.4791 10.8287 22.1569 10.6289 21.8746C10.4291 21.5922 10.1705 21.3565 9.87101 21.1835C9.57149 21.0105 9.23808 20.9043 8.89367 20.8723C8.54926 20.8403 8.20201 20.8832 7.87574 20.9981L5.89887 21.6934C4.79845 20.508 3.97861 19.0904 3.5 17.5454L5.09445 16.1788C5.35684 15.9537 5.56746 15.6745 5.71186 15.3604C5.85626 15.0463 5.93102 14.7047 5.93102 14.3589C5.93102 14.0132 5.85626 13.6716 5.71186 13.3575C5.56746 13.0434 5.35684 12.7642 5.09445 12.5391L3.5 11.1725C3.97826 9.62758 4.79768 8.20998 5.89767 7.02449L7.87574 7.71981ZM13.81 10.7624C14.7638 10.7624 15.6786 11.1414 16.3531 11.8158C17.0276 12.4903 17.4065 13.4051 17.4065 14.3589C17.4065 15.3128 17.0276 16.2276 16.3531 16.9021C15.6786 17.5765 14.7638 17.9554 13.81 17.9554C12.8561 17.9554 11.9413 17.5765 11.2669 16.9021C10.5924 16.2276 10.2135 15.3128 10.2135 14.3589C10.2135 13.4051 10.5924 12.4903 11.2669 11.8158C11.9413 11.1414 12.8561 10.7624 13.81 10.7624Z" stroke="white" stroke-width="1.5" stroke-linecap="round" stroke-linejoin="round"/>
</svg>
