<svg width="40" height="40" viewBox="0 0 40 40" fill="none" xmlns="http://www.w3.org/2000/svg">
<path d="M28.9061 25.4785L28.9058 25.4781L26.6973 22.1673L26.6972 22.1672C26.2848 21.5486 26.0662 20.8226 26.0662 20.0798V15.5233C26.0662 12.4342 23.0494 10 19.539 10C16.0277 10 13.0119 12.4342 13.0119 15.5233V20.0799C13.0119 20.8228 12.7919 21.5491 12.3798 22.1672L12.3798 22.1672L10.1715 25.4786L28.9061 25.4785ZM28.9061 25.4785C29.0091 25.6326 29.0683 25.8118 29.0774 25.9969C29.0864 26.182 29.045 26.3661 28.9576 26.5295C28.8701 26.693 28.7399 26.8295 28.5808 26.9247C28.4218 27.0198 28.2398 27.07 28.0545 27.0698H28.0539M28.9061 25.4785L28.0539 27.0698M28.0539 27.0698H23.0526H22.5526M28.0539 27.0698H22.5526M22.5526 27.0698V27.5698M22.5526 27.0698V27.5698M22.5526 27.5698C22.5526 27.9655 22.4746 28.3574 22.3232 28.723C22.1717 29.0886 21.9498 29.4208 21.6699 29.7007C21.3901 29.9805 21.0579 30.2025 20.6923 30.3539C20.3266 30.5054 19.9348 30.5833 19.539 30.5833C19.1433 30.5833 18.7514 30.5054 18.3858 30.3539C18.0202 30.2025 17.6879 29.9805 17.4081 29.7007C17.1283 29.4208 16.9063 29.0886 16.7548 28.723C16.6034 28.3574 16.5255 27.9655 16.5255 27.5698V27.0698M22.5526 27.5698L16.5255 27.0698M16.5255 27.0698H16.0255M16.5255 27.0698H16.0255M16.0255 27.0698H11.0251H11.0247M16.0255 27.0698H11.0247M11.0247 27.0698C10.8394 27.0699 10.6575 27.0198 10.4985 26.9247M11.0247 27.0698L10.4985 26.9247M10.4985 26.9247C10.3394 26.8296 10.2091 26.6931 10.1216 26.5298M10.4985 26.9247L10.1216 26.5298M10.1216 26.5298C10.034 26.3664 9.99236 26.1824 10.0012 25.9973M10.1216 26.5298L10.0012 25.9973M10.0012 25.9973C10.0099 25.8123 10.0687 25.6332 10.1712 25.479L10.0012 25.9973ZM13.5177 20.0798V20.08C13.5179 20.9227 13.2687 21.7465 12.8015 22.4478L10.5931 25.7584L10.5517 25.8206L10.5302 25.8922L10.5272 25.9022L10.4955 26.0076L10.5111 26.1166L10.5121 26.1236L10.5281 26.2359L10.591 26.3303L10.5951 26.3363L10.6505 26.4195L10.7338 26.475L10.7398 26.479L10.8342 26.5419L10.9464 26.5579L10.9535 26.5589L10.9886 26.564H11.0241H28.0539H28.0894L28.1246 26.5589L28.1316 26.5579L28.2439 26.5419L28.3382 26.479L28.3443 26.475L28.4275 26.4195L28.483 26.3363L28.487 26.3302L28.5465 26.2409L28.5642 26.1351L28.5652 26.129L28.5843 26.0145L28.5509 25.9032L28.5479 25.8932L28.5264 25.8217L28.485 25.7595L26.2775 22.4477L26.2774 22.4477C25.8099 21.7465 25.5604 20.9226 25.5603 20.0798V15.5233C25.5603 12.7967 22.8601 10.5058 19.539 10.5058C16.2179 10.5058 13.5177 12.7967 13.5177 15.5233V20.0798ZM22.0468 27.5698V27.0698H21.5468H17.5313H17.0313V27.5698C17.0313 28.2349 17.2955 28.8727 17.7658 29.343C18.2361 29.8133 18.8739 30.0775 19.539 30.0775C20.2041 30.0775 20.842 29.8133 21.3123 29.343C21.7826 28.8727 22.0468 28.2349 22.0468 27.5698Z" fill="black" stroke="white"/>
</svg>
